<?xml version="1.0" encoding="iso-8859-1"?>
<!-- Generator: Adobe Illustrator 19.0.0, SVG Export Plug-In . SVG Version: 6.00 Build 0)  -->
<svg version="1.1" id="Capa_1" xmlns="http://www.w3.org/2000/svg" xmlns:xlink="http://www.w3.org/1999/xlink" x="0px" y="0px"
	 viewBox="0 0 512.002 512.002" style="enable-background:new 0 0 512.002 512.002;" xml:space="preserve">
<g>
	<g>
		<g>
			<path d="M430.826,93.869c-31.108,0-70.942,2.258-103.167,19.862c-20.204,11.428-37.927,26.768-52.133,45.125
				c-6.41,8.213-12.401,16.745-17.95,25.563c-5.692,9.138-11.937,17.919-18.7,26.296c-34,40.417-85.1,60.067-156.217,60.067
				c-21.756,0.278-39.248,17.994-39.248,39.752s17.491,39.474,39.248,39.752c3.841,0,7.846-0.029,11.95-0.089v132.459
				c-0.073,16.109,12.908,29.237,29.017,29.346h266.233c16.109-0.109,29.09-13.237,29.017-29.346V173.049l0.108,0.004
				c10.734,1.59,21.698-0.144,31.417-4.971c12.165-7.224,19.637-20.31,19.675-34.458C470.189,111.817,452.631,94.034,430.826,93.869
				z M401.809,482.656c0.083,6.688-5.263,12.181-11.95,12.279h-72.976c9.786-6.889,20.021-13.12,30.635-18.65
				c16.953-8.512,35.385-13.686,54.291-15.241V482.656z M401.809,443.929c-21.563,1.581-42.604,7.388-61.925,17.09
				c-11.401,5.934-22.395,12.62-32.908,20.013c-3.608,2.429-7.225,4.862-10.917,7.25c-3.835,2.477-7.612,4.675-11.297,6.654H123.626
				c-6.687-0.099-12.033-5.592-11.95-12.279v-13.48c28.959-0.331,57.869-2.48,86.558-6.436c37.959-4.394,74.506-17.001,107.1-36.946
				c3.717-2.412,7.358-4.858,11-7.308c9.966-7.015,20.38-13.372,31.175-19.029c16.964-8.489,35.395-13.652,54.3-15.211V443.929z
				 M401.809,367.129c-21.564,1.588-42.607,7.385-61.942,17.065c-11.444,5.986-22.487,12.71-33.058,20.129
				c-3.558,2.396-7.117,4.787-10.75,7.142c-30.54,18.595-64.758,30.329-100.283,34.388c-27.875,3.84-55.964,5.929-84.1,6.255
				v-42.756c29.356-0.547,58.586-4.007,87.258-10.328c41.021-8.602,78.567-29.183,107.883-59.137
				c3.725-3.838,7.367-7.737,11.008-11.638c9.638-10.845,20.058-20.969,31.175-30.292c15.151-12.518,33.392-20.725,52.809-23.761
				V367.129z M401.809,256.996c-23.319,3.068-45.305,12.636-63.442,27.611c-11.771,9.845-22.806,20.537-33.017,31.991
				c-3.567,3.825-7.133,7.642-10.783,11.4c-27.052,27.577-61.676,46.509-99.492,54.4c-27.407,6.033-55.342,9.342-83.4,9.878v-42.583
				c29.714-0.848,59.206-5.404,87.792-13.561c43.56-12.985,81.572-40.071,108.067-77.004c3.717-4.983,7.35-10.042,10.975-15.104
				c9.476-13.935,19.957-27.159,31.358-39.567c13.697-15.413,31.85-26.184,51.942-30.82V256.996z M441.717,153.39
				c-6.879,2.926-14.449,3.835-21.825,2.621c-2.95-0.158-5.883-0.308-8.767-0.308c-0.325,0.004-0.658,0.025-0.967,0.004
				l-1.375,0.033c-30.342,0.971-55.458,20.579-71.183,36.858c-11.981,13.005-22.997,26.869-32.958,41.479
				c-3.567,4.975-7.133,9.95-10.792,14.85c-24.341,33.973-59.274,58.901-99.316,70.871c-36.446,9.865-74.131,14.386-111.875,13.421
				c-12.33-0.277-22.182-10.352-22.182-22.685s9.851-22.409,22.182-22.685c76.467,0,131.833-21.637,169.275-66.146
				c7.206-8.906,13.862-18.243,19.933-27.958c5.239-8.338,10.893-16.408,16.942-24.179c12.812-16.605,28.8-30.494,47.033-40.858
				c28.833-15.75,65.908-17.771,94.983-17.771c12.384,0.155,22.307,10.303,22.183,22.688
				C452.987,141.74,448.699,149.248,441.717,153.39z"/>
			<path d="M50.493,202.669L50.493,202.669l0.066,0c67.933-0.554,119.933-17.138,154.567-49.304
				c13.84-13.801,26.127-29.075,36.642-45.55c3.529-5.117,7.178-10.296,10.889-15.405l25.136,24.622
				c1.597,1.562,3.741,2.437,5.975,2.437c0.665,0.001,1.328-0.077,1.975-0.233c2.853-0.676,5.158-2.773,6.1-5.55l34.842-102.4
				c1.045-3.06,0.269-6.448-2.003-8.749s-5.649-3.119-8.722-2.114L211.426,34.556c-2.834,0.927-4.978,3.266-5.658,6.169
				c-0.679,2.903,0.205,5.95,2.333,8.039l32.246,31.588c-4.352,5.91-8.577,11.898-12.629,17.776
				c-9.812,15.452-21.286,29.783-34.217,42.737c-31.4,29.171-79.542,44.221-143.075,44.737c-4.713,0.018-8.518,3.854-8.5,8.567
				C41.944,198.882,45.78,202.688,50.493,202.669z M230.093,46.415l74.941-24.471l-24.975,73.408L230.093,46.415z"/>
		</g>
	</g>
</g>
<g>
</g>
<g>
</g>
<g>
</g>
<g>
</g>
<g>
</g>
<g>
</g>
<g>
</g>
<g>
</g>
<g>
</g>
<g>
</g>
<g>
</g>
<g>
</g>
<g>
</g>
<g>
</g>
<g>
</g>
</svg>
