<svg id="Layer_5" enable-background="new 0 0 64 64" height="512" viewBox="0 0 64 64" width="512" xmlns="http://www.w3.org/2000/svg"><g><path d="m8 22h2v2h-2z"/><path d="m12 22h2v2h-2z"/><path d="m16 22h2v2h-2z"/><path d="m19.832 48.555-1.664-1.109-1.703 2.554h-.649c-.302-.847-.969-1.514-1.816-1.816v-.649l2.555-1.703-1.109-1.664-1.446.964v-2.132h-2v2.132l-1.445-.964-1.109 1.664 2.554 1.703v.649c-.847.302-1.514.969-1.816 1.816h-.649l-1.703-2.555-1.664 1.109.964 1.446h-2.132v2h2.132l-.964 1.445 1.664 1.109 1.703-2.554h.649c.302.847.969 1.514 1.816 1.816v.649l-2.555 1.703 1.109 1.664 1.446-.964v2.132h2v-2.132l1.445.964 1.109-1.664-2.554-1.703v-.649c.847-.302 1.514-.969 1.816-1.816h.649l1.703 2.555 1.664-1.109-.964-1.446h2.132v-2h-2.132zm-6.832 3.445c-.551 0-1-.449-1-1s.449-1 1-1 1 .449 1 1-.449 1-1 1z"/><path d="m54.858 14h4.142v-2h-4.142c-.094-.363-.238-.704-.425-1.019l2.931-2.931-1.414-1.414-2.931 2.931c-.315-.187-.656-.331-1.019-.425v-4.142h-2v4.142c-.363.094-.704.238-1.019.425l-2.931-2.931-1.414 1.414 2.931 2.931c-.186.316-.33.656-.425 1.019h-4.142v2h4.142c.094.363.238.704.425 1.019l-2.931 2.931 1.414 1.414 2.931-2.931c.316.186.656.33 1.019.425v4.142h2v-4.142c.363-.094.704-.238 1.019-.425l2.931 2.931 1.414-1.414-2.931-2.931c.187-.315.331-.656.425-1.019zm-3.858 1c-1.103 0-2-.897-2-2s.897-2 2-2 2 .897 2 2-.897 2-2 2z"/><path d="m52 46.399-.878 1.097-3.122-4.163-3.2 4.267c-.516.687-.8 1.54-.8 2.4 0 1.87 1.295 3.432 3.032 3.868-.014.143-.032.286-.032.43 0 2.593 2.109 4.702 4.702 4.702h.597c2.592 0 4.701-2.109 4.701-4.702 0-1.063-.366-2.106-1.03-2.937zm-6 3.601c0-.43.142-.856.4-1.2l1.6-2.133 1.6 2.134c.258.343.4.769.4 1.199 0 1.103-.897 2-2 2s-2-.897-2-2zm6.298 7h-.597c-1.489 0-2.701-1.212-2.701-2.702 0-.152.017-.304.042-.454 1.699-.461 2.958-2.001 2.958-3.844 0-.122-.018-.242-.03-.362l.03-.037 2.408 3.01c.382.477.592 1.077.592 1.687 0 1.49-1.212 2.702-2.702 2.702z"/><path d="m55.677 39.95c.862-2.565 1.323-5.23 1.323-7.95s-.461-5.385-1.323-7.95c4.3-1.826 7.323-6.092 7.323-11.05 0-6.617-5.383-12-12-12-4.958 0-9.224 3.023-11.05 7.323-4.925-1.65-10.296-1.72-15.257-.207-.793-2.388-3.043-4.116-5.693-4.116-.389 0-.777.042-1.173.127-1.29-1.947-3.455-3.127-5.827-3.127-3.158 0-5.867 2.081-6.719 5.051-2.417.35-4.281 2.436-4.281 4.949 0 2.757 2.243 5 5 5h2v4h2v-4h2v4h2v-4h2v4h2v-4h1c3.271 0 5.933-2.631 5.994-5.887 4.649-1.484 9.712-1.445 14.343.112-.061.255-.112.514-.156.775h-10.181c-1.654 0-3 1.346-3 3s1.346 3 3 3h4c.551 0 1 .449 1 1s-.449 1-1 1h-1c-1.654 0-3 1.346-3 3s1.346 3 3 3h19c.957 0 1.883-.125 2.775-.337.26.769.478 1.548.653 2.337h-10.428c-1.654 0-3 1.346-3 3s1.346 3 3 3h3c.551 0 1 .449 1 1 0 1.654 1.346 3 3 3h3.428c-.176.789-.394 1.568-.653 2.337-.892-.212-1.818-.337-2.775-.337-6.617 0-12 5.383-12 12 0 .956.124 1.882.337 2.774-4.743 1.595-9.931 1.595-14.673 0 .212-.892.336-1.818.336-2.774 0-1.786-.403-3.476-1.105-5h6.105c1.654 0 3-1.346 3-3s-1.346-3-3-3h-2c-.551 0-1-.449-1-1s.449-1 1-1h6c1.654 0 3-1.346 3-3s-1.346-3-3-3h-13c-.551 0-1-.449-1-1 0-1.654-1.346-3-3-3h-7.645c.103-.588.221-1.173.37-1.75l-1.937-.5c-.523 2.031-.788 4.134-.788 6.25 0 2.72.461 5.385 1.323 7.95-4.3 1.826-7.323 6.092-7.323 11.05 0 6.617 5.383 12 12 12 4.958 0 9.224-3.023 11.05-7.323 2.565.862 5.23 1.323 7.95 1.323s5.385-.461 7.95-1.323c1.826 4.3 6.092 7.323 11.05 7.323 6.617 0 12-5.383 12-12 0-4.958-3.023-9.224-7.323-11.05zm-36.677-25.95h-13c-1.654 0-3-1.346-3-3s1.346-3 2.901-3.006l1.032.028.142-.85c.403-2.417 2.474-4.172 4.925-4.172 1.894 0 3.603 1.054 4.46 2.751l.396.783.828-.29c.467-.164.898-.244 1.316-.244 2.206 0 4 1.794 4 4s-1.794 4-4 4zm13 9c-.551 0-1-.449-1-1s.449-1 1-1h1c1.654 0 3-1.346 3-3s-1.346-3-3-3h-4c-.551 0-1-.449-1-1s.449-1 1-1h10c0 4.171 2.142 7.849 5.381 10zm9-10c0-5.514 4.486-10 10-10s10 4.486 10 10-4.486 10-10 10-10-4.486-10-10zm10 22c-.551 0-1-.449-1-1 0-1.654-1.346-3-3-3h-3c-.551 0-1-.449-1-1s.449-1 1-1h10.781c.13.992.219 1.99.219 3s-.089 2.008-.219 3zm-42-3c0-.669.039-1.336.097-2h7.903c.551 0 1 .449 1 1 0 1.654 1.346 3 3 3h13c.551 0 1 .449 1 1s-.449 1-1 1h-6c-1.654 0-3 1.346-3 3s1.346 3 3 3h2c.551 0 1 .449 1 1s-.449 1-1 1h-7.273c-2.181-3.022-5.724-5-9.727-5-.957 0-1.883.125-2.775.337-.798-2.366-1.225-4.826-1.225-7.337zm4 29c-5.514 0-10-4.486-10-10s4.486-10 10-10 10 4.486 10 10-4.486 10-10 10zm38 0c-5.514 0-10-4.486-10-10s4.486-10 10-10 10 4.486 10 10-4.486 10-10 10z"/></g></svg>